# xmcd CD database file
#
# Track frame offsets:
#	150
#	38510
#	97755
#	125230
#	178047
#	207912
#	244920
#	259300
#	302105
#
# Disc length: 4156 seconds
#
# Revision: 0
# Processed by: cddbd v1.4PL0 Copyright (c) Steve Scherf et al.
# Submitted via: CDex 1.50
#
DISCID=7a103a09
DTITLE=Hugh Ragin - Feel The Sunshine
DYEAR=2002
DGENRE=Jazz
TTITLE0=Caravan
TTITLE1=Feel The Sunshine
TTITLE2=Hugh's Blues
TTITLE3=Pain
TTITLE4=Gulf Coast Groove
TTITLE5=Easy Living
TTITLE6=Master Mind
TTITLE7=Freedom Jazz Dance
TTITLE8=Say Goodbye
EXTD=YEAR: 2002
EXTT0=
EXTT1=
EXTT2=
EXTT3=
EXTT4=
EXTT5=
EXTT6=
EXTT7=
EXTT8=
PLAYORDER=
